# Blender v2.77 (sub 0) OBJ File: ''
# www.blender.org
mtllib four.mtl
o ascii.007
v 0.285480 12.484779 5.000001
v 0.285480 12.484781 -4.999999
v 0.285480 -4.270291 4.999999
v 0.285480 -4.270289 -5.000001
v -11.009374 -4.270291 4.999999
v -11.009374 -4.270289 -5.000001
v 10.051472 -4.270291 4.999999
v 10.051472 -4.270289 -5.000001
v 10.051472 20.971519 5.000003
v 10.051472 20.971519 -4.999997
v 15.761299 -4.270291 4.999999
v 15.761299 -4.270289 -5.000001
v 15.761299 -11.758592 4.999998
v 15.761299 -11.758590 -5.000002
v 10.051472 -11.758592 4.999998
v 10.051472 -11.758590 -5.000002
v 10.051472 -19.028481 4.999996
v 10.051472 -19.028481 -5.000004
v 0.285480 -19.028481 4.999996
v 0.285480 -19.028481 -5.000004
v 0.285480 -11.758592 4.999998
v 0.285480 -11.758590 -5.000002
v -17.436831 -11.758592 4.999998
v -17.436831 -11.758590 -5.000002
v -17.436831 -2.897431 4.999999
v -17.436831 -2.897430 -5.000001
v -1.430588 20.971519 5.000003
v -1.430588 20.971519 -4.999997
vn -1.0000 -0.0000 0.0000
vn 0.0000 1.0000 0.0000
vn 0.8292 -0.5590 -0.0000
vn 1.0000 0.0000 0.0000
vn 0.0000 -1.0000 0.0000
vn -0.8305 0.5570 0.0000
vn 0.0000 -0.0000 1.0000
vn -0.0000 0.0000 -1.0000
usemtl DefaultMaterial.007
s 1
f 1//1 2//1 3//1
f 3//1 2//1 4//1
f 3//2 4//2 5//2
f 5//2 4//2 6//2
f 5//3 6//3 1//3
f 1//3 6//3 2//3
f 7//4 8//4 9//4
f 9//4 8//4 10//4
f 11//2 12//2 7//2
f 7//2 12//2 8//2
f 13//4 14//4 11//4
f 11//4 14//4 12//4
f 15//5 16//5 13//5
f 13//5 16//5 14//5
f 17//4 18//4 15//4
f 15//4 18//4 16//4
f 19//5 20//5 17//5
f 17//5 20//5 18//5
f 21//1 22//1 19//1
f 19//1 22//1 20//1
f 23//5 24//5 21//5
f 21//5 24//5 22//5
f 25//1 26//1 23//1
f 23//1 26//1 24//1
f 27//6 28//6 25//6
f 25//6 28//6 26//6
f 9//2 10//2 27//2
f 27//2 10//2 28//2
f 3//7 7//7 1//7
f 3//7 15//7 7//7
f 3//7 21//7 15//7
f 3//7 5//7 21//7
f 21//7 5//7 23//7
f 23//7 5//7 25//7
f 25//7 5//7 1//7
f 27//7 1//7 9//7
f 27//7 25//7 1//7
f 7//7 9//7 1//7
f 19//7 17//7 21//7
f 21//7 17//7 15//7
f 15//7 13//7 7//7
f 7//7 13//7 11//7
f 2//8 8//8 4//8
f 2//8 10//8 8//8
f 2//8 28//8 10//8
f 2//8 26//8 28//8
f 2//8 6//8 26//8
f 26//8 6//8 24//8
f 24//8 6//8 22//8
f 22//8 6//8 4//8
f 8//8 22//8 4//8
f 8//8 16//8 22//8
f 8//8 12//8 16//8
f 16//8 12//8 14//8
f 18//8 20//8 16//8
f 16//8 20//8 22//8
