# Blender v2.77 (sub 0) OBJ File: ''
# www.blender.org
mtllib Letter_Y.mtl
o ascii.036
v -0.016167 1.397824 5.000000
v -0.016167 1.397826 -5.000000
v -9.126938 15.656795 5.000002
v -9.126938 15.656796 -4.999998
v 9.094593 15.656795 5.000002
v 9.094593 15.656796 -4.999998
v 20.420641 15.656795 5.000002
v 20.420641 15.656796 -4.999998
v 5.163233 -7.494536 4.999998
v 5.163233 -7.494534 -5.000002
v 5.163233 -24.343204 4.999996
v 5.163233 -24.343204 -5.000004
v -5.164377 -24.343204 4.999996
v -5.164377 -24.343204 -5.000004
v -5.164377 -7.494536 4.999998
v -5.164377 -7.494534 -5.000002
v -20.421787 15.656795 5.000002
v -20.421787 15.656796 -4.999998
vn 0.8427 0.5384 0.0000
vn -0.8427 0.5384 0.0000
vn 0.0000 1.0000 0.0000
vn 0.8350 -0.5503 -0.0000
vn 1.0000 0.0000 0.0000
vn 0.0000 -1.0000 0.0000
vn -1.0000 0.0000 0.0000
vn -0.8350 -0.5503 -0.0000
vn -0.0000 -0.0000 1.0000
vn 0.0000 0.0000 -1.0000
usemtl DefaultMaterial.036
s 1
f 1//1 2//1 3//1
f 3//1 2//1 4//1
f 5//2 6//2 1//2
f 1//2 6//2 2//2
f 7//3 8//3 5//3
f 5//3 8//3 6//3
f 9//4 10//4 7//4
f 7//4 10//4 8//4
f 11//5 12//5 9//5
f 9//5 12//5 10//5
f 13//6 14//6 11//6
f 11//6 14//6 12//6
f 15//7 16//7 13//7
f 13//7 16//7 14//7
f 17//8 18//8 15//8
f 15//8 18//8 16//8
f 3//3 4//3 17//3
f 17//3 4//3 18//3
f 3//9 15//9 1//9
f 3//9 17//9 15//9
f 13//9 11//9 15//9
f 15//9 11//9 9//9
f 1//9 9//9 5//9
f 1//9 15//9 9//9
f 9//9 7//9 5//9
f 18//10 4//10 16//10
f 16//10 4//10 2//10
f 10//10 2//10 6//10
f 8//10 10//10 6//10
f 16//10 2//10 10//10
f 14//10 10//10 12//10
f 14//10 16//10 10//10
