# Blender v2.77 (sub 0) OBJ File: ''
# www.blender.org
mtllib Letter_V.mtl
o ascii.033
v 0.000004 -11.458863 4.999998
v 0.000004 -11.458861 -5.000002
v -10.608417 18.057518 5.000002
v -10.608417 18.057518 -4.999998
v 10.608423 18.057518 5.000002
v 10.608423 18.057518 -4.999998
v 20.967243 18.057518 5.000002
v 20.967243 18.057518 -4.999998
v 6.146652 -21.942482 4.999996
v 6.146652 -21.942482 -5.000004
v -6.146647 -21.942482 4.999996
v -6.146647 -21.942482 -5.000004
v -20.967236 18.057518 5.000002
v -20.967236 18.057518 -4.999998
vn 0.9411 0.3382 0.0000
vn -0.9411 0.3382 0.0000
vn 0.0000 1.0000 0.0000
vn 0.9377 -0.3474 0.0000
vn 0.0000 -1.0000 0.0000
vn -0.9377 -0.3474 0.0000
vn 0.0000 -0.0000 1.0000
vn 0.0000 0.0000 -1.0000
usemtl DefaultMaterial.033
s 1
f 1//1 2//1 3//1
f 3//1 2//1 4//1
f 5//2 6//2 1//2
f 1//2 6//2 2//2
f 7//3 8//3 5//3
f 5//3 8//3 6//3
f 9//4 10//4 7//4
f 7//4 10//4 8//4
f 11//5 12//5 9//5
f 9//5 12//5 10//5
f 13//6 14//6 11//6
f 11//6 14//6 12//6
f 3//3 4//3 13//3
f 13//3 4//3 14//3
f 3//7 13//7 1//7
f 1//7 13//7 11//7
f 9//7 1//7 11//7
f 9//7 7//7 1//7
f 1//7 7//7 5//7
f 4//8 2//8 14//8
f 14//8 2//8 12//8
f 12//8 2//8 10//8
f 10//8 2//8 8//8
f 8//8 2//8 6//8
