# Blender v2.77 (sub 0) OBJ File: ''
# www.blender.org
mtllib Letter_K.mtl
o ascii.022
v -5.309343 5.576584 5.000002
v -5.309343 5.576586 -4.999998
v -5.309343 20.178764 5.000004
v -5.309343 20.178764 -4.999996
v 9.542458 20.178764 5.000004
v 9.542458 20.178764 -4.999996
v 21.523737 20.178764 5.000004
v 21.523737 20.178764 -4.999996
v 2.272568 1.239604 5.000001
v 2.272568 1.239606 -4.999999
v 23.520617 -19.821236 4.999998
v 23.520617 -19.821236 -5.000002
v 10.603296 -19.821236 4.999998
v 10.603296 -19.821236 -5.000002
v -5.309343 -4.064607 5.000000
v -5.309343 -4.064605 -5.000000
v -5.309343 -19.821236 4.999998
v -5.309343 -19.821236 -5.000002
v -15.636951 -19.821236 4.999998
v -15.636951 -19.821236 -5.000002
v -15.636951 20.178764 5.000004
v -15.636951 20.178764 -4.999996
vn 1.0000 0.0000 0.0000
vn -0.7011 0.7131 0.0000
vn 0.0000 1.0000 0.0000
vn 0.7013 -0.7129 0.0000
vn 0.7040 0.7102 0.0000
vn 0.0000 -1.0000 0.0000
vn -0.7036 -0.7106 0.0000
vn -1.0000 0.0000 0.0000
vn 0.0000 -0.0000 1.0000
vn 0.0000 0.0000 -1.0000
usemtl DefaultMaterial.022
s 1
f 1//1 2//1 3//1
f 3//1 2//1 4//1
f 5//2 6//2 1//2
f 1//2 6//2 2//2
f 7//3 8//3 5//3
f 5//3 8//3 6//3
f 9//4 10//4 7//4
f 7//4 10//4 8//4
f 11//5 12//5 9//5
f 9//5 12//5 10//5
f 13//6 14//6 11//6
f 11//6 14//6 12//6
f 15//7 16//7 13//7
f 13//7 16//7 14//7
f 17//1 18//1 15//1
f 15//1 18//1 16//1
f 19//6 20//6 17//6
f 17//6 20//6 18//6
f 21//8 22//8 19//8
f 19//8 22//8 20//8
f 3//3 4//3 21//3
f 21//3 4//3 22//3
f 3//9 21//9 1//9
f 1//9 21//9 15//9
f 9//9 15//9 13//9
f 11//9 9//9 13//9
f 21//9 19//9 15//9
f 15//9 19//9 17//9
f 1//9 15//9 9//9
f 5//9 9//9 7//9
f 5//9 1//9 9//9
f 4//10 2//10 22//10
f 22//10 2//10 16//10
f 20//10 16//10 18//10
f 20//10 22//10 16//10
f 16//10 2//10 10//10
f 14//10 10//10 12//10
f 14//10 16//10 10//10
f 8//10 10//10 6//10
f 6//10 10//10 2//10
