# Blender v2.77 (sub 0) OBJ File: ''
# www.blender.org
mtllib Letter_H.mtl
o ascii.019
v -7.597496 4.662524 5.000002
v -7.597496 4.662526 -4.999998
v -7.597496 19.919935 5.000004
v -7.597496 19.919935 -4.999996
v 7.597513 4.662524 5.000002
v 7.597513 4.662526 -4.999998
v 7.597513 19.919935 5.000004
v 7.597513 19.919935 -4.999996
v 17.925121 19.919935 5.000004
v 17.925121 19.919935 -4.999996
v 17.925121 -20.080065 4.999998
v 17.925121 -20.080065 -5.000002
v 7.597513 -20.080065 4.999998
v 7.597513 -20.080065 -5.000002
v 7.597513 -3.137786 5.000000
v 7.597513 -3.137784 -5.000000
v -7.597496 -3.137786 5.000000
v -7.597496 -3.137784 -5.000000
v -7.597496 -20.080065 4.999998
v -7.597496 -20.080065 -5.000002
v -17.925104 -20.080065 4.999998
v -17.925104 -20.080065 -5.000002
v -17.925104 19.919935 5.000004
v -17.925104 19.919935 -4.999996
vn 1.0000 0.0000 0.0000
vn 0.0000 1.0000 0.0000
vn -1.0000 -0.0000 0.0000
vn 0.0000 -1.0000 0.0000
vn 0.0000 -0.0000 1.0000
vn 0.0000 0.0000 -1.0000
usemtl DefaultMaterial.019
s 1
f 1//1 2//1 3//1
f 3//1 2//1 4//1
f 5//2 6//2 1//2
f 1//2 6//2 2//2
f 7//3 8//3 5//3
f 5//3 8//3 6//3
f 9//2 10//2 7//2
f 7//2 10//2 8//2
f 11//1 12//1 9//1
f 9//1 12//1 10//1
f 13//4 14//4 11//4
f 11//4 14//4 12//4
f 15//3 16//3 13//3
f 13//3 16//3 14//3
f 17//4 18//4 15//4
f 15//4 18//4 16//4
f 19//1 20//1 17//1
f 17//1 20//1 18//1
f 21//4 22//4 19//4
f 19//4 22//4 20//4
f 23//3 24//3 21//3
f 21//3 24//3 22//3
f 3//2 4//2 23//2
f 23//2 4//2 24//2
f 3//5 23//5 1//5
f 1//5 23//5 17//5
f 15//5 1//5 17//5
f 15//5 5//5 1//5
f 15//5 9//5 5//5
f 15//5 11//5 9//5
f 15//5 13//5 11//5
f 23//5 21//5 17//5
f 17//5 21//5 19//5
f 9//5 7//5 5//5
f 4//6 2//6 24//6
f 24//6 2//6 18//6
f 22//6 18//6 20//6
f 22//6 24//6 18//6
f 2//6 6//6 18//6
f 18//6 6//6 16//6
f 16//6 6//6 10//6
f 12//6 16//6 10//6
f 12//6 14//6 16//6
f 6//6 8//6 10//6
