# Blender v2.77 (sub 0) OBJ File: ''
# www.blender.org
mtllib Letter_E.mtl
o ascii.016
v 14.598230 12.157828 5.000003
v 14.598230 12.157830 -4.999997
v 14.598230 19.958141 5.000004
v 14.598230 19.958141 -4.999996
v -2.905672 12.157828 5.000003
v -2.905672 12.157830 -4.999997
v -2.905672 4.700730 5.000002
v -2.905672 4.700732 -4.999998
v 13.568590 4.700730 5.000002
v 13.568590 4.700732 -4.999998
v 13.568590 -3.099580 5.000000
v 13.568590 -3.099578 -5.000000
v -2.905672 -3.099580 5.000000
v -2.905672 -3.099578 -5.000000
v -2.905672 -12.241551 4.999999
v -2.905672 -12.241549 -5.000001
v 15.191057 -12.241551 4.999999
v 15.191057 -12.241549 -5.000001
v 15.191057 -20.041859 4.999998
v 15.191057 -20.041859 -5.000002
v -13.233280 -20.041859 4.999998
v -13.233280 -20.041859 -5.000002
v -13.233280 19.958141 5.000004
v -13.233280 19.958141 -4.999996
vn 1.0000 -0.0000 0.0000
vn 0.0000 -1.0000 -0.0000
vn 0.0000 1.0000 0.0000
vn -1.0000 0.0000 0.0000
vn 0.0000 -0.0000 1.0000
vn 0.0000 0.0000 -1.0000
usemtl DefaultMaterial.016
s 1
f 1//1 2//1 3//1
f 3//1 2//1 4//1
f 5//2 6//2 1//2
f 1//2 6//2 2//2
f 7//1 8//1 5//1
f 5//1 8//1 6//1
f 9//3 10//3 7//3
f 7//3 10//3 8//3
f 11//1 12//1 9//1
f 9//1 12//1 10//1
f 13//2 14//2 11//2
f 11//2 14//2 12//2
f 15//1 16//1 13//1
f 13//1 16//1 14//1
f 17//3 18//3 15//3
f 15//3 18//3 16//3
f 19//1 20//1 17//1
f 17//1 20//1 18//1
f 21//2 22//2 19//2
f 19//2 22//2 20//2
f 23//4 24//4 21//4
f 21//4 24//4 22//4
f 3//3 4//3 23//3
f 23//3 4//3 24//3
f 1//5 3//5 5//5
f 5//5 3//5 23//5
f 7//5 23//5 13//5
f 11//5 7//5 13//5
f 11//5 9//5 7//5
f 23//5 21//5 13//5
f 13//5 21//5 15//5
f 15//5 21//5 19//5
f 17//5 15//5 19//5
f 7//5 5//5 23//5
f 4//6 6//6 24//6
f 4//6 2//6 6//6
f 6//6 8//6 24//6
f 24//6 8//6 14//6
f 22//6 14//6 16//6
f 20//6 16//6 18//6
f 20//6 22//6 16//6
f 8//6 10//6 14//6
f 14//6 10//6 12//6
f 24//6 14//6 22//6
