# Blender v2.77 (sub 0) OBJ File: ''
# www.blender.org
mtllib Letter_J.mtl
o ascii.021
v 6.763350 -9.546195 4.999997
v 6.763350 -9.546193 -5.000003
v 6.763350 26.553644 5.000003
v 6.763350 26.553644 -4.999997
v 6.747510 -10.467425 4.999997
v 6.741700 -10.620283 -0.000003
v 6.747510 -10.467423 -5.000003
v 6.699980 -11.359044 -5.000003
v 6.699980 -11.359046 4.999997
v 6.676729 -11.653887 -0.000003
v 6.620750 -12.221036 -5.000003
v 6.620750 -12.221038 4.999997
v 6.568449 -12.647005 -0.000003
v 6.509840 -13.053414 -5.000003
v 6.509840 -13.053416 4.999997
v 6.416861 -13.599646 -0.000004
v 6.367241 -13.856172 -5.000004
v 6.367241 -13.856174 4.999996
v 6.221950 -14.511816 -0.000004
v 6.192961 -14.629327 -5.000004
v 6.192961 -14.629329 4.999996
v 5.983740 -15.383497 -0.000004
v 5.986980 -15.372846 -5.000004
v 5.986980 -15.372848 4.999996
v 5.749310 -16.086767 4.999996
v 5.702210 -16.214697 -0.000004
v 5.479960 -16.771055 4.999996
v 5.377370 -17.005415 -0.000004
v 5.178920 -17.425734 4.999996
v 5.009210 -17.755659 -0.000004
v 4.846180 -18.050795 4.999996
v 4.597751 -18.465414 -0.000004
v 4.481760 -18.646238 4.999996
v 4.142969 -19.134695 -0.000005
v 4.085650 -19.212065 4.999995
v 3.644880 -19.763494 -0.000005
v 3.657850 -19.748274 4.999995
v 3.198370 -20.254866 4.999995
v 3.103480 -20.351816 -0.000005
v 2.707191 -20.731848 4.999995
v 2.518700 -20.899706 -0.000005
v 2.707191 -20.731848 -5.000005
v 2.183840 -21.179579 -5.000005
v 3.198370 -20.254866 -5.000005
v 3.657850 -19.748274 -5.000005
v 4.085650 -19.212065 -5.000005
v 4.481760 -18.646238 -5.000004
v 5.749310 -16.086767 -5.000004
v 5.479960 -16.771055 -5.000004
v 5.178920 -17.425734 -5.000004
v 4.846180 -18.050795 -5.000004
v 2.183840 -21.179579 4.999995
v 1.889589 -21.407888 -0.000005
v 1.627821 -21.598417 -5.000005
v 1.627821 -21.598417 4.999995
v 1.215829 -21.876574 -0.000005
v 1.039145 -21.988363 -5.000005
v 1.039145 -21.988363 4.999995
v 0.709840 -22.185682 -0.000005
v 0.417800 -22.349436 -5.000005
v 0.417800 -22.349436 4.999995
v 0.181300 -22.474848 -0.000005
v -0.236207 -22.681616 -5.000005
v -0.236207 -22.681616 4.999995
v -0.369791 -22.744066 -0.000005
v -0.922878 -22.984915 -5.000005
v -0.922878 -22.984915 4.999995
v -0.943433 -22.993345 -0.000005
v -1.539626 -23.222685 -0.000005
v -1.642213 -23.259336 -5.000005
v -2.158369 -23.432074 -0.000005
v -2.394212 -23.504854 -5.000005
v -2.799663 -23.621527 -0.000005
v -3.178875 -23.721495 -5.000005
v -3.463509 -23.791037 -0.000005
v -3.996201 -23.909254 -5.000005
v -4.149905 -23.940607 -0.000005
v -4.846192 -24.068129 -5.000005
v -4.858851 -24.070234 -0.000005
v -5.590349 -24.179918 -0.000005
v -4.846192 -24.068129 4.999995
v -5.728846 -24.198118 4.999995
v -6.344398 -24.269659 -0.000005
v -6.644164 -24.299208 4.999995
v -7.120997 -24.339457 -0.000005
v -6.644164 -24.299208 -5.000005
v -7.592145 -24.371424 -5.000005
v -5.728846 -24.198118 -5.000005
v -1.642213 -23.259336 4.999995
v -2.394212 -23.504854 4.999995
v -3.178875 -23.721495 4.999995
v -3.996201 -23.909254 4.999995
v -7.592145 -24.371424 4.999995
v -7.920147 -24.389307 -0.000005
v -8.572790 -24.414755 -5.000005
v -8.572790 -24.414755 4.999995
v -8.741848 -24.419226 -0.000005
v -9.586100 -24.429193 -5.000005
v -9.586100 -24.429193 4.999995
v -11.676584 -24.429193 4.999995
v -11.676584 -24.429193 -5.000005
v -11.676584 -16.628885 4.999996
v -11.676584 -16.628885 -5.000004
v -10.085320 -16.628885 4.999996
v -10.085320 -16.628885 -5.000004
v -9.689698 -16.621878 4.999996
v -9.616599 -16.618986 -0.000004
v -9.689698 -16.621878 -5.000004
v -9.306264 -16.600843 -5.000004
v -9.306264 -16.600843 4.999996
v -9.165086 -16.589304 -0.000004
v -8.935018 -16.565805 -5.000004
v -8.935018 -16.565805 4.999996
v -8.730781 -16.539839 -0.000004
v -8.575959 -16.516760 -5.000004
v -8.575959 -16.516760 4.999996
v -8.313684 -16.470575 -0.000004
v -8.229089 -16.453676 -5.000004
v -8.229089 -16.453676 4.999996
v -7.913793 -16.381529 -0.000004
v -7.894407 -16.376596 -5.000004
v -7.894407 -16.376596 4.999996
v -7.571913 -16.285486 4.999996
v -7.531111 -16.272684 -0.000004
v -7.261607 -16.180365 4.999996
v -7.165636 -16.144056 -0.000004
v -6.963489 -16.061224 4.999996
v -6.817369 -15.995646 -0.000004
v -6.677559 -15.928077 4.999996
v -6.486309 -15.827436 -0.000004
v -6.403816 -15.780910 4.999996
v -6.172457 -15.639444 -0.000004
v -6.142262 -15.619720 4.999996
v -5.875813 -15.431669 -0.000004
v -5.892896 -15.444518 4.999996
v -5.655718 -15.255294 4.999996
v -5.596376 -15.204096 -0.000004
v -5.430727 -15.052070 4.999996
v -5.334146 -14.956739 -0.000004
v -5.430727 -15.052068 -5.000004
v -5.217925 -14.834813 -5.000004
v -5.655718 -15.255292 -5.000004
v -5.892896 -15.444516 -5.000004
v -6.142262 -15.619718 -5.000004
v -6.403816 -15.780908 -5.000004
v -7.571913 -16.285486 -5.000004
v -7.261607 -16.180365 -5.000004
v -6.963489 -16.061224 -5.000004
v -6.677559 -15.928075 -5.000004
v -5.217925 -14.834815 4.999996
v -5.089272 -14.689737 -0.000004
v -5.017677 -14.603906 -5.000004
v -5.017677 -14.603908 4.999996
v -4.862527 -14.403864 -0.000004
v -4.830347 -14.359727 -5.000004
v -4.830347 -14.359729 4.999996
v -4.654021 -14.099237 -0.000004
v -4.655937 -14.102254 -5.000004
v -4.655937 -14.102256 4.999996
v -4.494446 -13.831496 4.999996
v -4.398608 -13.652674 -0.000004
v -4.345875 -13.547454 4.999996
v -4.177250 -13.171095 -0.000004
v -4.210222 -13.250125 4.999996
v -4.087489 -12.939517 4.999997
v -3.989947 -12.654486 -0.000003
v -3.977676 -12.615626 4.999997
v -3.880781 -12.278445 4.999997
v -3.836700 -12.102865 -0.000003
v -3.796806 -11.927978 4.999997
v -3.717507 -11.516226 -0.000003
v -3.725750 -11.564227 4.999997
v -3.667613 -11.187186 4.999997
v -3.632369 -10.894575 -0.000003
v -3.622396 -10.796866 4.999997
v -3.590098 -10.393268 4.999997
v -3.581287 -10.237894 -0.000003
v -3.570719 -9.976378 4.999997
v -3.564259 -9.546195 4.999997
v -3.570719 -9.976377 -5.000003
v -3.564259 -9.546193 -5.000003
v -4.494446 -13.831494 -5.000004
v -4.345875 -13.547452 -5.000004
v -4.210222 -13.250123 -5.000004
v -3.880781 -12.278443 -5.000003
v -3.796806 -11.927976 -5.000003
v -3.977676 -12.615624 -5.000003
v -4.087489 -12.939515 -5.000003
v -3.725750 -11.564225 -5.000003
v -3.590098 -10.393266 -5.000003
v -3.622396 -10.796865 -5.000003
v -3.667613 -11.187184 -5.000003
v -3.564259 26.553644 5.000003
v -3.564259 26.553644 -4.999997
vn 1.0000 0.0000 0.0000
vn 0.9999 -0.0172 -0.0000
vn 0.9997 -0.0224 -0.0005
vn 0.9986 -0.0532 -0.0005
vn 0.9999 -0.0172 0.0006
vn 0.9986 -0.0532 0.0005
vn 0.9980 -0.0627 -0.0009
vn 0.9958 -0.0915 -0.0008
vn 0.9980 -0.0627 0.0009
vn 0.9958 -0.0915 0.0008
vn 0.9941 -0.1084 -0.0012
vn 0.9912 -0.1321 -0.0009
vn 0.9941 -0.1084 0.0012
vn 0.9912 -0.1321 0.0009
vn 0.9876 -0.1571 -0.0012
vn 0.9846 -0.1749 -0.0008
vn 0.9876 -0.1571 0.0012
vn 0.9846 -0.1749 0.0008
vn 0.9779 -0.2090 -0.0010
vn 0.9755 -0.2199 -0.0005
vn 0.9779 -0.2090 0.0010
vn 0.9755 -0.2199 0.0005
vn 0.9646 -0.2636 0.0000
vn 0.9646 -0.2636 -0.0006
vn 0.9637 -0.2670 0.0001
vn 0.9646 -0.2636 0.0006
vn 0.9637 -0.2670 -0.0001
vn 0.9488 -0.3159 0.0001
vn 0.9305 -0.3663 0.0006
vn 0.9085 -0.4178 0.0009
vn 0.8827 -0.4699 0.0010
vn 0.8529 -0.5220 0.0009
vn 0.8192 -0.5735 0.0005
vn 0.7817 -0.6237 -0.0001
vn 0.7407 -0.6718 0.0001
vn 0.7358 -0.6772 -0.0008
vn 0.6967 -0.7174 0.0007
vn 0.6837 -0.7297 -0.0013
vn 0.6501 -0.7599 -0.0010
vn 0.6837 -0.7297 0.0013
vn 0.6967 -0.7174 -0.0007
vn 0.7358 -0.6772 0.0008
vn 0.7407 -0.6718 -0.0001
vn 0.7817 -0.6237 0.0001
vn 0.7839 -0.6209 0.0006
vn 0.7839 -0.6209 -0.0000
vn 0.8192 -0.5735 -0.0005
vn 0.8271 -0.5620 0.0011
vn 0.8271 -0.5620 -0.0011
vn 0.9471 -0.3208 0.0000
vn 0.9471 -0.3208 -0.0007
vn 0.9305 -0.3663 -0.0006
vn 0.9471 -0.3208 0.0007
vn 0.9488 -0.3159 -0.0001
vn 0.9250 -0.3800 -0.0012
vn 0.9085 -0.4178 -0.0009
vn 0.9250 -0.3800 0.0012
vn 0.8977 -0.4405 -0.0014
vn 0.8827 -0.4699 -0.0010
vn 0.8977 -0.4405 0.0014
vn 0.8651 -0.5015 -0.0014
vn 0.8529 -0.5220 -0.0009
vn 0.8651 -0.5015 0.0014
vn 0.7839 -0.6209 -0.0006
vn 0.6501 -0.7599 0.0010
vn 0.6284 -0.7779 -0.0015
vn 0.6017 -0.7987 -0.0011
vn 0.6284 -0.7779 0.0015
vn 0.6017 -0.7987 0.0011
vn 0.5710 -0.8209 -0.0014
vn 0.5522 -0.8337 -0.0009
vn 0.5710 -0.8209 0.0014
vn 0.5522 -0.8337 0.0009
vn 0.5213 -0.8534 -0.0000
vn 0.5213 -0.8534 -0.0007
vn 0.5024 -0.8646 -0.0010
vn 0.5213 -0.8534 0.0007
vn 0.5024 -0.8646 0.0010
vn 0.4800 -0.8773 0.0000
vn 0.4800 -0.8773 -0.0007
vn 0.4529 -0.8916 -0.0009
vn 0.4800 -0.8773 0.0007
vn 0.4529 -0.8916 0.0009
vn 0.4389 -0.8985 0.0000
vn 0.4389 -0.8985 -0.0005
vn 0.4040 -0.9147 -0.0006
vn 0.4389 -0.8985 0.0005
vn 0.4040 -0.9147 0.0006
vn 0.3986 -0.9171 -0.0000
vn 0.3986 -0.9171 -0.0001
vn 0.3590 -0.9333 -0.0001
vn 0.3590 -0.9333 0.0000
vn 0.3206 -0.9472 0.0004
vn 0.3206 -0.9472 -0.0000
vn 0.2833 -0.9590 0.0006
vn 0.2833 -0.9590 0.0000
vn 0.2474 -0.9689 0.0006
vn 0.2474 -0.9689 -0.0000
vn 0.2129 -0.9771 0.0004
vn 0.2129 -0.9771 -0.0000
vn 0.1799 -0.9837 0.0000
vn 0.1483 -0.9889 0.0000
vn 0.1457 -0.9893 0.0004
vn 0.1182 -0.9930 -0.0003
vn 0.1182 -0.9930 0.0000
vn 0.1098 -0.9940 0.0007
vn 0.0895 -0.9960 -0.0000
vn 0.0895 -0.9960 -0.0005
vn 0.0760 -0.9971 -0.0008
vn 0.0895 -0.9960 0.0005
vn 0.1098 -0.9940 -0.0007
vn 0.1182 -0.9930 0.0003
vn 0.1457 -0.9893 -0.0004
vn 0.3590 -0.9333 0.0001
vn 0.3564 -0.9343 0.0005
vn 0.3104 -0.9506 0.0008
vn 0.2661 -0.9639 0.0009
vn 0.2239 -0.9746 0.0008
vn 0.1837 -0.9830 0.0005
vn 0.3206 -0.9472 -0.0004
vn 0.2833 -0.9590 -0.0006
vn 0.2474 -0.9689 -0.0006
vn 0.2129 -0.9771 -0.0004
vn 0.0760 -0.9971 0.0008
vn 0.0623 -0.9981 -0.0000
vn 0.0623 -0.9981 -0.0005
vn 0.0441 -0.9990 -0.0007
vn 0.0623 -0.9981 0.0005
vn 0.0441 -0.9990 0.0007
vn 0.0364 -0.9993 0.0000
vn 0.0364 -0.9993 -0.0003
vn 0.0142 -0.9999 -0.0004
vn 0.0364 -0.9993 0.0003
vn 0.0142 -0.9999 0.0004
vn 0.0118 -0.9999 0.0000
vn 0.1837 -0.9830 -0.0005
vn 0.2239 -0.9746 -0.0008
vn 0.2661 -0.9639 -0.0009
vn 0.3104 -0.9506 -0.0008
vn 0.3564 -0.9343 -0.0005
vn 0.3986 -0.9171 0.0001
vn 0.0000 -1.0000 0.0000
vn -1.0000 0.0000 0.0000
vn 0.0000 1.0000 0.0000
vn -0.0177 0.9998 0.0000
vn -0.0236 0.9997 0.0002
vn -0.0548 0.9985 0.0002
vn -0.0177 0.9998 -0.0003
vn -0.0548 0.9985 -0.0002
vn -0.0656 0.9978 -0.0000
vn -0.0656 0.9978 0.0005
vn -0.0940 0.9956 0.0004
vn -0.0656 0.9978 -0.0005
vn -0.0940 0.9956 -0.0004
vn -0.1132 0.9936 -0.0000
vn -0.1132 0.9936 0.0005
vn -0.1353 0.9908 0.0004
vn -0.1132 0.9936 -0.0005
vn -0.1353 0.9908 -0.0004
vn -0.1638 0.9865 0.0000
vn -0.1638 0.9865 0.0005
vn -0.1789 0.9839 0.0003
vn -0.1638 0.9865 -0.0005
vn -0.1789 0.9839 -0.0003
vn -0.2174 0.9761 0.0000
vn -0.2174 0.9761 0.0004
vn -0.2244 0.9745 0.0001
vn -0.2174 0.9761 -0.0004
vn -0.2244 0.9745 -0.0001
vn -0.2719 0.9623 0.0001
vn -0.3209 0.9471 -0.0002
vn -0.3711 0.9286 -0.0004
vn -0.4221 0.9065 -0.0004
vn -0.4735 0.8808 -0.0004
vn -0.5246 0.8513 -0.0002
vn -0.5745 0.8185 -0.0000
vn -0.5741 0.8188 0.0002
vn -0.5749 0.8182 0.0001
vn -0.6237 0.7817 -0.0001
vn -0.6315 0.7754 0.0004
vn -0.6315 0.7754 0.0000
vn -0.6703 0.7421 -0.0004
vn -0.6862 0.7274 0.0000
vn -0.6862 0.7274 0.0006
vn -0.7144 0.6997 0.0005
vn -0.6862 0.7274 -0.0006
vn -0.6703 0.7421 0.0004
vn -0.6315 0.7754 -0.0004
vn -0.6237 0.7817 0.0001
vn -0.5741 0.8188 -0.0002
vn -0.5749 0.8182 -0.0001
vn -0.5737 0.8191 0.0000
vn -0.5246 0.8513 0.0002
vn -0.5139 0.8579 0.0000
vn -0.5139 0.8579 -0.0005
vn -0.5139 0.8579 0.0005
vn -0.2736 0.9619 -0.0000
vn -0.2736 0.9619 0.0002
vn -0.3209 0.9471 0.0002
vn -0.2736 0.9619 -0.0002
vn -0.2719 0.9623 -0.0001
vn -0.3320 0.9433 0.0000
vn -0.3320 0.9433 0.0005
vn -0.3711 0.9286 0.0004
vn -0.3320 0.9433 -0.0005
vn -0.3920 0.9200 -0.0000
vn -0.3920 0.9200 0.0006
vn -0.4221 0.9065 0.0004
vn -0.3920 0.9200 -0.0006
vn -0.4530 0.8915 0.0000
vn -0.4530 0.8915 0.0006
vn -0.4735 0.8808 0.0004
vn -0.4530 0.8915 -0.0006
vn -0.7144 0.6997 -0.0005
vn -0.7370 0.6759 0.0000
vn -0.7370 0.6759 0.0006
vn -0.7555 0.6552 0.0004
vn -0.7370 0.6759 -0.0006
vn -0.7555 0.6552 -0.0004
vn -0.7835 0.6214 0.0000
vn -0.7835 0.6214 0.0006
vn -0.7934 0.6087 0.0003
vn -0.7835 0.6214 -0.0006
vn -0.7934 0.6087 -0.0003
vn -0.8252 0.5648 0.0000
vn -0.8252 0.5648 0.0003
vn -0.8279 0.5608 -0.0000
vn -0.8252 0.5648 -0.0003
vn -0.8588 0.5122 -0.0000
vn -0.8861 0.4635 -0.0004
vn -0.9098 0.4151 0.0006
vn -0.9300 0.3675 -0.0003
vn -0.9401 0.3409 0.0011
vn -0.9470 0.3211 -0.0002
vn -0.9611 0.2762 0.0002
vn -0.9725 0.2330 -0.0004
vn -0.9815 0.1917 0.0002
vn -0.9883 0.1524 -0.0002
vn -0.9908 0.1357 0.0010
vn -0.9934 0.1151 -0.0003
vn -0.9968 0.0798 0.0004
vn -0.9989 0.0464 -0.0003
vn -0.9999 0.0150 0.0013
vn -0.9996 0.0289 -0.0006
vn -0.9999 0.0150 0.0000
vn -0.8680 0.4965 0.0011
vn -0.8861 0.4635 0.0004
vn -0.8680 0.4965 -0.0011
vn -0.9086 0.4176 0.0008
vn -0.9098 0.4151 -0.0006
vn -0.9086 0.4176 -0.0008
vn -0.9635 0.2677 0.0009
vn -0.9725 0.2330 0.0004
vn -0.9635 0.2677 -0.0009
vn -0.9611 0.2762 -0.0002
vn -0.9470 0.3211 0.0002
vn -0.9300 0.3675 0.0003
vn -0.9401 0.3408 -0.0011
vn -0.9800 0.1991 0.0009
vn -0.9815 0.1917 -0.0002
vn -0.9800 0.1991 -0.0009
vn -0.9970 0.0776 -0.0000
vn -0.9970 0.0776 0.0007
vn -0.9989 0.0464 0.0003
vn -0.9970 0.0776 -0.0007
vn -0.9968 0.0798 -0.0004
vn -0.9934 0.1151 0.0003
vn -0.9883 0.1524 0.0002
vn -0.9908 0.1357 -0.0010
vn 0.0000 -0.0000 1.0000
vn 0.0000 0.0000 -1.0000
usemtl DefaultMaterial.021
s 1
f 1//1 2//1 3//1
f 3//1 2//1 4//1
f 1//2 5//2 2//2
f 2//3 5//3 6//3
f 7//4 6//4 8//4
f 7//5 2//5 6//5
f 5//6 9//6 6//6
f 6//7 9//7 10//7
f 8//8 10//8 11//8
f 8//9 6//9 10//9
f 9//10 12//10 10//10
f 10//11 12//11 13//11
f 11//12 13//12 14//12
f 11//13 10//13 13//13
f 12//14 15//14 13//14
f 13//15 15//15 16//15
f 14//16 16//16 17//16
f 14//17 13//17 16//17
f 15//18 18//18 16//18
f 16//19 18//19 19//19
f 17//20 19//20 20//20
f 17//21 16//21 19//21
f 18//22 21//22 19//22
f 19//23 21//24 22//23
f 20//25 22//25 23//25
f 20//26 19//23 22//23
f 21//27 24//27 22//27
f 22//28 24//28 25//28
f 26//29 25//29 27//29
f 28//30 27//30 29//30
f 30//31 29//31 31//31
f 32//32 31//32 33//32
f 34//33 33//33 35//33
f 36//34 35//34 37//34
f 38//35 36//35 37//35
f 38//36 39//36 36//36
f 38//37 40//37 39//37
f 39//38 40//38 41//38
f 42//39 41//39 43//39
f 42//40 39//40 41//40
f 42//41 44//41 39//41
f 39//42 44//42 36//42
f 36//43 44//43 45//43
f 46//44 36//44 45//44
f 46//45 34//46 36//46
f 46//47 47//47 34//47
f 34//48 47//48 32//48
f 33//49 34//49 32//49
f 22//50 25//51 26//50
f 48//52 26//52 49//52
f 48//53 22//50 26//50
f 48//54 23//54 22//54
f 26//55 27//55 28//55
f 49//56 28//56 50//56
f 49//57 26//57 28//57
f 28//58 29//58 30//58
f 50//59 30//59 51//59
f 50//60 28//60 30//60
f 30//61 31//61 32//61
f 51//62 32//62 47//62
f 51//63 30//63 32//63
f 34//46 35//64 36//46
f 40//65 52//65 41//65
f 41//66 52//66 53//66
f 43//67 53//67 54//67
f 43//68 41//68 53//68
f 52//69 55//69 53//69
f 53//70 55//70 56//70
f 54//71 56//71 57//71
f 54//72 53//72 56//72
f 55//73 58//73 56//73
f 56//74 58//75 59//74
f 57//76 59//76 60//76
f 57//77 56//74 59//74
f 58//78 61//78 59//78
f 59//79 61//80 62//79
f 60//81 62//81 63//81
f 60//82 59//79 62//79
f 61//83 64//83 62//83
f 62//84 64//85 65//84
f 63//86 65//86 66//86
f 63//87 62//84 65//84
f 64//88 67//88 65//88
f 65//89 67//90 68//89
f 66//91 68//92 69//92
f 70//93 69//94 71//94
f 72//95 71//96 73//96
f 74//97 73//98 75//98
f 76//99 75//100 77//100
f 78//101 77//101 79//101
f 80//102 79//102 81//102
f 82//103 80//103 81//103
f 82//104 83//105 80//105
f 82//106 84//106 83//106
f 83//107 84//108 85//107
f 86//109 85//109 87//109
f 86//110 83//107 85//107
f 86//111 88//111 83//111
f 83//105 88//112 80//105
f 80//113 88//113 78//113
f 79//102 80//102 78//102
f 68//92 67//114 69//92
f 69//115 67//115 89//115
f 71//116 89//116 90//116
f 73//117 90//117 91//117
f 75//118 91//118 92//118
f 77//119 92//119 81//119
f 79//101 77//101 81//101
f 69//94 89//120 71//94
f 71//96 90//121 73//96
f 73//98 91//122 75//98
f 75//100 92//123 77//100
f 84//124 93//124 85//124
f 85//125 93//126 94//125
f 87//127 94//127 95//127
f 87//128 85//125 94//125
f 93//129 96//129 94//129
f 94//130 96//131 97//130
f 95//132 97//132 98//132
f 95//133 94//130 97//130
f 96//134 99//134 97//134
f 97//135 99//135 98//135
f 78//136 76//136 77//136
f 76//137 74//137 75//137
f 74//138 72//138 73//138
f 72//139 70//139 71//139
f 70//140 66//140 69//140
f 68//89 66//141 65//89
f 100//142 101//142 99//142
f 99//142 101//142 98//142
f 102//143 103//143 100//143
f 100//143 103//143 101//143
f 104//144 105//144 102//144
f 102//144 105//144 103//144
f 104//145 106//145 105//145
f 105//146 106//146 107//146
f 108//147 107//147 109//147
f 108//148 105//148 107//148
f 106//149 110//149 107//149
f 107//150 110//151 111//150
f 109//152 111//152 112//152
f 109//153 107//150 111//150
f 110//154 113//154 111//154
f 111//155 113//156 114//155
f 112//157 114//157 115//157
f 112//158 111//155 114//155
f 113//159 116//159 114//159
f 114//160 116//161 117//160
f 115//162 117//162 118//162
f 115//163 114//160 117//160
f 116//164 119//164 117//164
f 117//165 119//166 120//165
f 118//167 120//167 121//167
f 118//168 117//165 120//165
f 119//169 122//169 120//169
f 120//170 122//170 123//170
f 124//171 123//171 125//171
f 126//172 125//172 127//172
f 128//173 127//173 129//173
f 130//174 129//174 131//174
f 132//175 131//175 133//175
f 134//176 133//177 135//178
f 136//179 134//179 135//179
f 136//180 137//181 134//181
f 136//182 138//182 137//182
f 137//183 138//184 139//183
f 140//185 139//185 141//185
f 140//186 137//183 139//183
f 140//187 142//187 137//187
f 137//181 142//188 134//181
f 134//189 142//189 143//189
f 144//190 134//176 143//191
f 144//190 132//192 134//176
f 144//193 145//193 132//193
f 132//194 145//195 130//194
f 131//196 132//194 130//194
f 120//197 123//198 124//197
f 146//199 124//199 147//199
f 146//200 120//197 124//197
f 146//201 121//201 120//201
f 124//202 125//203 126//202
f 147//204 126//204 148//204
f 147//205 124//202 126//202
f 126//206 127//207 128//206
f 148//208 128//208 149//208
f 148//209 126//206 128//206
f 128//210 129//211 130//210
f 149//212 130//212 145//212
f 149//213 128//210 130//210
f 132//192 133//177 134//176
f 138//214 150//214 139//214
f 139//215 150//216 151//215
f 141//217 151//217 152//217
f 141//218 139//215 151//215
f 150//219 153//219 151//219
f 151//220 153//221 154//220
f 152//222 154//222 155//222
f 152//223 151//220 154//220
f 153//224 156//224 154//224
f 154//225 156//226 157//225
f 155//227 157//227 158//227
f 155//228 154//225 157//225
f 156//227 159//227 157//227
f 157//229 159//229 160//229
f 161//230 160//230 162//230
f 163//231 162//231 164//231
f 165//232 163//232 164//232
f 165//233 166//233 163//233
f 165//234 167//234 166//234
f 166//235 167//235 168//235
f 169//236 168//236 170//236
f 171//237 170//237 172//237
f 173//238 171//238 172//238
f 173//239 174//239 171//239
f 173//240 175//240 174//240
f 174//241 175//241 176//241
f 177//242 176//242 178//242
f 179//243 177//243 178//243
f 179//244 180//244 177//244
f 179//245 181//245 180//245
f 157//246 160//246 161//246
f 182//247 161//247 183//247
f 182//248 157//248 161//248
f 182//229 158//229 157//229
f 161//249 162//249 163//249
f 183//250 163//250 184//250
f 183//251 161//251 163//251
f 166//252 168//252 169//252
f 185//253 169//253 186//253
f 185//254 166//254 169//254
f 185//255 187//255 166//255
f 166//256 187//256 188//256
f 163//257 188//257 184//257
f 163//258 166//258 188//258
f 169//259 170//259 171//259
f 186//260 171//260 189//260
f 186//261 169//261 171//261
f 174//262 176//263 177//262
f 190//264 177//264 180//264
f 190//265 174//262 177//262
f 190//266 191//266 174//266
f 174//267 191//267 192//267
f 171//268 192//268 189//268
f 171//269 174//269 192//269
f 193//143 194//143 179//143
f 179//143 194//143 181//143
f 3//144 4//144 193//144
f 193//144 4//144 194//144
f 3//270 193//270 1//270
f 1//270 193//270 179//270
f 5//270 179//270 9//270
f 5//270 1//270 179//270
f 178//270 27//270 179//270
f 178//270 176//270 27//270
f 27//270 176//270 175//270
f 173//270 27//270 175//270
f 173//270 172//270 27//270
f 27//270 172//270 170//270
f 168//270 27//270 170//270
f 168//270 167//270 27//270
f 27//270 167//270 165//270
f 164//270 27//270 165//270
f 164//270 162//270 27//270
f 27//270 162//270 160//270
f 159//270 27//270 160//270
f 159//270 29//270 27//270
f 159//270 156//270 29//270
f 29//270 156//270 153//270
f 150//270 29//270 153//270
f 150//270 138//270 29//270
f 29//270 138//270 136//270
f 135//270 29//270 136//270
f 135//270 100//270 29//270
f 135//270 133//270 100//270
f 100//270 133//270 131//270
f 129//270 100//270 131//270
f 129//270 127//270 100//270
f 100//270 127//270 125//270
f 123//270 100//270 125//270
f 123//270 122//270 100//270
f 100//270 122//270 119//270
f 116//270 100//270 119//270
f 116//270 113//270 100//270
f 100//270 113//270 110//270
f 106//270 100//270 110//270
f 106//270 104//270 100//270
f 100//270 104//270 102//270
f 99//270 96//270 100//270
f 100//270 96//270 93//270
f 84//270 100//270 93//270
f 84//270 82//270 100//270
f 100//270 82//270 81//270
f 92//270 100//270 81//270
f 92//270 91//270 100//270
f 100//270 91//270 90//270
f 89//270 100//270 90//270
f 89//270 67//270 100//270
f 100//270 67//270 64//270
f 61//270 100//270 64//270
f 61//270 58//270 100//270
f 100//270 58//270 55//270
f 52//270 100//270 55//270
f 52//270 40//270 100//270
f 100//270 40//270 38//270
f 37//270 100//270 38//270
f 37//270 35//270 100//270
f 100//270 35//270 33//270
f 31//270 100//270 33//270
f 31//270 29//270 100//270
f 27//270 25//270 179//270
f 179//270 25//270 24//270
f 21//270 179//270 24//270
f 21//270 18//270 179//270
f 179//270 18//270 15//270
f 12//270 179//270 15//270
f 12//270 9//270 179//270
f 194//271 4//271 181//271
f 181//271 4//271 2//271
f 7//271 181//271 2//271
f 7//271 8//271 181//271
f 181//271 8//271 11//271
f 14//271 181//271 11//271
f 14//271 17//271 181//271
f 181//271 17//271 20//271
f 23//271 181//271 20//271
f 23//271 48//271 181//271
f 181//271 48//271 180//271
f 180//271 48//271 190//271
f 190//271 48//271 191//271
f 191//271 48//271 192//271
f 192//271 48//271 189//271
f 189//271 48//271 186//271
f 186//271 48//271 185//271
f 185//271 48//271 187//271
f 187//271 48//271 188//271
f 188//271 48//271 184//271
f 184//271 48//271 183//271
f 183//271 48//271 182//271
f 182//271 48//271 158//271
f 158//271 48//271 155//271
f 155//271 48//271 152//271
f 152//271 48//271 49//271
f 141//271 49//271 140//271
f 141//271 152//271 49//271
f 50//271 51//271 49//271
f 49//271 51//271 47//271
f 46//271 49//271 47//271
f 46//271 45//271 49//271
f 49//271 45//271 44//271
f 42//271 49//271 44//271
f 42//271 43//271 49//271
f 49//271 43//271 54//271
f 57//271 49//271 54//271
f 57//271 105//271 49//271
f 57//271 60//271 105//271
f 105//271 60//271 63//271
f 66//271 105//271 63//271
f 66//271 70//271 105//271
f 105//271 70//271 72//271
f 74//271 105//271 72//271
f 74//271 76//271 105//271
f 105//271 76//271 78//271
f 88//271 105//271 78//271
f 88//271 86//271 105//271
f 105//271 86//271 87//271
f 95//271 105//271 87//271
f 95//271 98//271 105//271
f 105//271 98//271 101//271
f 103//271 105//271 101//271
f 105//271 108//271 49//271
f 49//271 108//271 109//271
f 112//271 49//271 109//271
f 112//271 115//271 49//271
f 49//271 115//271 118//271
f 121//271 49//271 118//271
f 121//271 146//271 49//271
f 49//271 146//271 147//271
f 148//271 49//271 147//271
f 148//271 149//271 49//271
f 49//271 149//271 145//271
f 144//271 49//271 145//271
f 144//271 143//271 49//271
f 49//271 143//271 142//271
f 140//271 49//271 142//271
