# Blender v2.77 (sub 0) OBJ File: ''
# www.blender.org
mtllib Letter_F.mtl
o ascii.017
v 16.414812 8.741519 4.500001
v 16.414812 8.741521 -4.499999
v 16.414812 16.541832 4.500002
v 16.414812 16.541832 -4.499998
v -1.089090 8.741519 4.500001
v -1.089090 8.741521 -4.499999
v -1.089090 1.284421 4.500000
v -1.089090 1.284423 -4.500000
v 15.353971 1.284421 4.500000
v 15.353971 1.284423 -4.500000
v 15.353971 -6.515889 4.499999
v 15.353971 -6.515887 -4.500001
v -1.089090 -6.515889 4.499999
v -1.089090 -6.515887 -4.500001
v -1.089090 -23.458168 4.499996
v -1.089090 -23.458168 -4.500004
v -11.416698 -23.458168 4.499996
v -11.416698 -23.458168 -4.500004
v -11.416698 16.541832 4.500002
v -11.416698 16.541832 -4.499998
vn 1.0000 0.0000 0.0000
vn 0.0000 -1.0000 -0.0000
vn 0.0000 1.0000 0.0000
vn -1.0000 0.0000 0.0000
vn 0.0000 -0.0000 1.0000
vn 0.0000 0.0000 -1.0000
usemtl DefaultMaterial.017
s 1
f 1//1 2//1 3//1
f 3//1 2//1 4//1
f 5//2 6//2 1//2
f 1//2 6//2 2//2
f 7//1 8//1 5//1
f 5//1 8//1 6//1
f 9//3 10//3 7//3
f 7//3 10//3 8//3
f 11//1 12//1 9//1
f 9//1 12//1 10//1
f 13//2 14//2 11//2
f 11//2 14//2 12//2
f 15//1 16//1 13//1
f 13//1 16//1 14//1
f 17//2 18//2 15//2
f 15//2 18//2 16//2
f 19//4 20//4 17//4
f 17//4 20//4 18//4
f 3//3 4//3 19//3
f 19//3 4//3 20//3
f 1//5 3//5 5//5
f 5//5 3//5 19//5
f 7//5 19//5 13//5
f 11//5 7//5 13//5
f 11//5 9//5 7//5
f 19//5 17//5 13//5
f 13//5 17//5 15//5
f 7//5 5//5 19//5
f 4//6 6//6 20//6
f 4//6 2//6 6//6
f 6//6 8//6 20//6
f 20//6 8//6 14//6
f 18//6 14//6 16//6
f 18//6 20//6 14//6
f 8//6 10//6 14//6
f 14//6 10//6 12//6
