# Blender v2.77 (sub 0) OBJ File: ''
# www.blender.org
mtllib Letter_X.mtl
o ascii.035
v 9.345182 -19.956787 4.999998
v 9.345182 -19.956787 -5.000002
v 20.078413 -19.956787 4.999998
v 20.078413 -19.956787 -5.000002
v -0.015198 -6.290637 5.000000
v -0.015198 -6.290635 -5.000000
v -9.281967 -19.956787 4.999998
v -9.281967 -19.956787 -5.000002
v -20.077595 -19.956787 4.999998
v -20.077595 -19.956787 -5.000002
v -6.193037 0.448831 5.000001
v -6.193037 0.448832 -4.999999
v -19.547173 20.043213 5.000004
v -19.547173 20.043213 -4.999996
v -8.782747 20.043213 5.000004
v -8.782747 20.043213 -4.999996
v -0.015198 7.157092 5.000002
v -0.015198 7.157094 -4.999998
v 8.721153 20.043213 5.000004
v 8.721153 20.043213 -4.999996
v 19.547995 20.043213 5.000004
v 19.547995 20.043213 -4.999996
v 6.193851 0.448831 5.000001
v 6.193851 0.448832 -4.999999
vn 0.0000 -1.0000 0.0000
vn -0.8250 -0.5651 -0.0000
vn 0.8277 -0.5612 0.0000
vn -0.8268 0.5626 0.0000
vn -0.8263 -0.5632 0.0000
vn 0.0000 1.0000 0.0000
vn 0.8268 0.5625 0.0000
vn -0.8277 0.5612 0.0000
vn 0.8263 -0.5632 0.0000
vn 0.8268 0.5626 0.0000
vn 0.0000 -0.0000 1.0000
vn 0.0000 0.0000 -1.0000
usemtl DefaultMaterial.035
s 1
f 1//1 2//1 3//1
f 3//1 2//1 4//1
f 5//2 6//2 1//2
f 1//2 6//2 2//2
f 7//3 8//3 5//3
f 5//3 8//3 6//3
f 9//1 10//1 7//1
f 7//1 10//1 8//1
f 11//4 12//4 9//4
f 9//4 12//4 10//4
f 13//5 14//5 11//5
f 11//5 14//5 12//5
f 15//6 16//6 13//6
f 13//6 16//6 14//6
f 17//7 18//7 15//7
f 15//7 18//7 16//7
f 19//8 20//8 17//8
f 17//8 20//8 18//8
f 21//6 22//6 19//6
f 19//6 22//6 20//6
f 23//9 24//9 21//9
f 21//9 24//9 22//9
f 3//10 4//10 23//10
f 23//10 4//10 24//10
f 3//11 23//11 1//11
f 1//11 23//11 5//11
f 5//11 23//11 11//11
f 7//11 11//11 9//11
f 7//11 5//11 11//11
f 21//11 19//11 23//11
f 23//11 19//11 17//11
f 11//11 17//11 15//11
f 13//11 11//11 15//11
f 23//11 17//11 11//11
f 4//12 2//12 24//12
f 24//12 2//12 6//12
f 12//12 6//12 8//12
f 10//12 12//12 8//12
f 24//12 6//12 12//12
f 18//12 12//12 16//12
f 18//12 24//12 12//12
f 18//12 20//12 24//12
f 24//12 20//12 22//12
f 12//12 14//12 16//12
