# Blender v2.77 (sub 0) OBJ File: ''
# www.blender.org
mtllib Letter_L.mtl
o ascii.023
v 0.897438 -8.012240 5.000000
v 0.897438 -8.012239 -5.000000
v 0.897438 24.187452 5.000005
v 0.897438 24.187452 -4.999995
v 18.994167 -8.012240 5.000000
v 18.994167 -8.012239 -5.000000
v 18.994167 -15.812549 4.999999
v 18.994167 -15.812547 -5.000001
v -9.430170 -15.812549 4.999999
v -9.430170 -15.812547 -5.000001
v -9.430170 24.187452 5.000005
v -9.430170 24.187452 -4.999995
vn 1.0000 0.0000 0.0000
vn 0.0000 1.0000 0.0000
vn 0.0000 -1.0000 -0.0000
vn -1.0000 0.0000 0.0000
vn 0.0000 -0.0000 1.0000
vn 0.0000 0.0000 -1.0000
usemtl DefaultMaterial.023
s 1
f 1//1 2//1 3//1
f 3//1 2//1 4//1
f 5//2 6//2 1//2
f 1//2 6//2 2//2
f 7//1 8//1 5//1
f 5//1 8//1 6//1
f 9//3 10//3 7//3
f 7//3 10//3 8//3
f 11//4 12//4 9//4
f 9//4 12//4 10//4
f 3//2 4//2 11//2
f 11//2 4//2 12//2
f 3//5 11//5 1//5
f 1//5 11//5 9//5
f 7//5 1//5 9//5
f 7//5 5//5 1//5
f 4//6 2//6 12//6
f 12//6 2//6 10//6
f 10//6 2//6 8//6
f 8//6 2//6 6//6
