# Blender v2.77 (sub 0) OBJ File: ''
# www.blender.org
mtllib Letter_M.mtl
o ascii.024
v -0.015139 -2.208964 5.000000
v -0.015139 -2.208963 -5.000000
v -9.125898 19.195095 5.000003
v -9.125898 19.195095 -4.999997
v 9.158030 19.195095 5.000003
v 9.158030 19.195095 -4.999997
v 22.262552 19.195095 5.000003
v 22.262552 19.195095 -4.999997
v 22.262552 -20.804905 4.999997
v 22.262552 -20.804905 -5.000003
v 12.496561 -20.804905 4.999997
v 12.496561 -20.804905 -5.000003
v 12.496561 8.461864 5.000001
v 12.496561 8.461865 -4.999999
v 3.292192 -13.098195 4.999998
v 3.292192 -13.098193 -5.000002
v -3.260067 -13.098195 4.999998
v -3.260067 -13.098193 -5.000002
v -12.464438 8.461864 5.000001
v -12.464438 8.461865 -4.999999
v -12.464438 -20.804905 4.999997
v -12.464438 -20.804905 -5.000003
v -22.261627 -20.804905 4.999997
v -22.261627 -20.804905 -5.000003
v -22.261627 19.195095 5.000003
v -22.261627 19.195095 -4.999997
vn 0.9201 0.3917 0.0000
vn -0.9191 0.3939 0.0000
vn 0.0000 1.0000 0.0000
vn 1.0000 0.0000 0.0000
vn 0.0000 -1.0000 0.0000
vn -1.0000 -0.0000 0.0000
vn 0.9197 -0.3926 -0.0000
vn -0.9197 -0.3926 -0.0000
vn 0.0000 -0.0000 1.0000
vn 0.0000 0.0000 -1.0000
usemtl DefaultMaterial.024
s 1
f 1//1 2//1 3//1
f 3//1 2//1 4//1
f 5//2 6//2 1//2
f 1//2 6//2 2//2
f 7//3 8//3 5//3
f 5//3 8//3 6//3
f 9//4 10//4 7//4
f 7//4 10//4 8//4
f 11//5 12//5 9//5
f 9//5 12//5 10//5
f 13//6 14//6 11//6
f 11//6 14//6 12//6
f 15//7 16//7 13//7
f 13//7 16//7 14//7
f 17//5 18//5 15//5
f 15//5 18//5 16//5
f 19//8 20//8 17//8
f 17//8 20//8 18//8
f 21//4 22//4 19//4
f 19//4 22//4 20//4
f 23//5 24//5 21//5
f 21//5 24//5 22//5
f 25//6 26//6 23//6
f 23//6 26//6 24//6
f 3//3 4//3 25//3
f 25//3 4//3 26//3
f 3//9 19//9 1//9
f 3//9 25//9 19//9
f 19//9 25//9 23//9
f 21//9 19//9 23//9
f 19//9 17//9 1//9
f 1//9 17//9 15//9
f 13//9 1//9 15//9
f 13//9 5//9 1//9
f 13//9 7//9 5//9
f 13//9 9//9 7//9
f 13//9 11//9 9//9
f 24//10 26//10 20//10
f 22//10 24//10 20//10
f 26//10 4//10 20//10
f 20//10 4//10 2//10
f 18//10 2//10 16//10
f 18//10 20//10 2//10
f 16//10 2//10 14//10
f 14//10 2//10 6//10
f 8//10 14//10 6//10
f 8//10 10//10 14//10
f 14//10 10//10 12//10
