# Blender v2.77 (sub 0) OBJ File: ''
# www.blender.org
mtllib number_sign.mtl
o ascii.040
v 4.436596 3.679153 5.000000
v 4.436596 3.679154 -5.000000
v 2.564516 -3.653145 5.000000
v 2.564516 -3.653145 -5.000000
v -4.518162 -3.653145 5.000000
v -4.518162 -3.653145 -5.000000
v -2.646093 3.679153 5.000000
v -2.646093 3.679154 -5.000000
v 5.903057 9.388985 5.000000
v 5.903057 9.388985 -5.000000
v -1.148434 9.388985 5.000000
v -1.148434 9.388985 -5.000000
v 8.523956 19.716595 5.000001
v 8.523956 19.716595 -4.999999
v 14.420998 19.716595 5.000001
v 14.420998 19.716595 -4.999999
v 11.831287 9.388985 5.000000
v 11.831287 9.388985 -5.000000
v 19.257187 9.388985 5.000000
v 19.257187 9.388985 -5.000000
v 19.257187 3.679153 5.000000
v 19.257187 3.679154 -5.000000
v 10.427238 3.679153 5.000000
v 10.427238 3.679154 -5.000000
v 8.555157 -3.653145 5.000000
v 8.555157 -3.653145 -5.000000
v 16.168266 -3.653145 5.000000
v 16.168266 -3.653145 -5.000000
v 16.168266 -9.425375 5.000000
v 16.168266 -9.425375 -5.000000
v 7.182304 -9.425375 5.000000
v 7.182304 -9.425375 -5.000000
v 4.592596 -19.690586 4.999999
v 4.592596 -19.690586 -5.000001
v -1.335632 -19.690586 4.999999
v -1.335632 -19.690586 -5.000001
v 1.254066 -9.425375 5.000000
v 1.254066 -9.425375 -5.000000
v -5.828613 -9.425375 5.000000
v -5.828613 -9.425375 -5.000000
v -8.387124 -19.690586 4.999999
v -8.387124 -19.690586 -5.000001
v -14.377760 -19.690586 4.999999
v -14.377760 -19.690586 -5.000001
v -11.788054 -9.425375 5.000000
v -11.788054 -9.425375 -5.000000
v -19.276354 -9.425375 5.000000
v -19.276354 -9.425375 -5.000000
v -19.276354 -3.653145 5.000000
v -19.276354 -3.653145 -5.000000
v -10.477603 -3.653145 5.000000
v -10.477603 -3.653145 -5.000000
v -8.605524 3.679153 5.000000
v -8.605524 3.679154 -5.000000
v -16.187431 3.679153 5.000000
v -16.187431 3.679154 -5.000000
v -16.187431 9.388985 5.000000
v -16.187431 9.388985 -5.000000
v -7.139074 9.388985 5.000000
v -7.139074 9.388985 -5.000000
v -4.549364 19.716595 5.000001
v -4.549364 19.716595 -4.999999
v 1.410076 19.716595 5.000001
v 1.410076 19.716595 -4.999999
vn -0.9689 0.2474 0.0000
vn 0.0000 1.0000 0.0000
vn 0.9689 -0.2474 -0.0000
vn 0.0000 -1.0000 -0.0000
vn -0.9693 0.2460 0.0000
vn 0.9700 -0.2432 0.0000
vn 1.0000 0.0000 0.0000
vn 0.9696 -0.2446 0.0000
vn -0.9696 0.2446 0.0000
vn 0.9703 -0.2418 0.0000
vn -1.0000 0.0000 0.0000
vn -0.9700 0.2432 0.0000
vn 0.9707 -0.2405 0.0000
vn 0.0000 -0.0000 1.0000
vn 0.0000 0.0000 -1.0000
usemtl DefaultMaterial.040
s 1
f 1//1 2//1 3//1
f 3//1 2//1 4//1
f 3//2 4//2 5//2
f 5//2 4//2 6//2
f 5//3 6//3 7//3
f 7//3 6//3 8//3
f 7//4 8//4 1//4
f 1//4 8//4 2//4
f 9//2 10//2 11//2
f 11//2 10//2 12//2
f 13//5 14//5 9//5
f 9//5 14//5 10//5
f 15//2 16//2 13//2
f 13//2 16//2 14//2
f 17//6 18//6 15//6
f 15//6 18//6 16//6
f 19//2 20//2 17//2
f 17//2 20//2 18//2
f 21//7 22//7 19//7
f 19//7 22//7 20//7
f 23//4 24//4 21//4
f 21//4 24//4 22//4
f 25//3 26//3 23//3
f 23//3 26//3 24//3
f 27//2 28//2 25//2
f 25//2 28//2 26//2
f 29//7 30//7 27//7
f 27//7 30//7 28//7
f 31//4 32//4 29//4
f 29//4 32//4 30//4
f 33//8 34//8 31//8
f 31//8 34//8 32//8
f 35//4 36//4 33//4
f 33//4 36//4 34//4
f 37//9 38//9 35//9
f 35//9 38//9 36//9
f 39//4 40//4 37//4
f 37//4 40//4 38//4
f 41//10 42//10 39//10
f 39//10 42//10 40//10
f 43//4 44//4 41//4
f 41//4 44//4 42//4
f 45//9 46//9 43//9
f 43//9 46//9 44//9
f 47//4 48//4 45//4
f 45//4 48//4 46//4
f 49//11 50//11 47//11
f 47//11 50//11 48//11
f 51//2 52//2 49//2
f 49//2 52//2 50//2
f 53//1 54//1 51//1
f 51//1 54//1 52//1
f 55//4 56//4 53//4
f 53//4 56//4 54//4
f 57//11 58//11 55//11
f 55//11 58//11 56//11
f 59//2 60//2 57//2
f 57//2 60//2 58//2
f 61//12 62//12 59//12
f 59//12 62//12 60//12
f 63//2 64//2 61//2
f 61//2 64//2 62//2
f 11//13 12//13 63//13
f 63//13 12//13 64//13
f 3//14 25//14 1//14
f 3//14 31//14 25//14
f 3//14 37//14 31//14
f 3//14 5//14 37//14
f 37//14 5//14 39//14
f 39//14 5//14 51//14
f 45//14 51//14 49//14
f 47//14 45//14 49//14
f 51//14 5//14 53//14
f 53//14 5//14 7//14
f 59//14 7//14 11//14
f 61//14 11//14 63//14
f 61//14 59//14 11//14
f 7//14 1//14 11//14
f 11//14 1//14 9//14
f 9//14 1//14 23//14
f 17//14 23//14 21//14
f 19//14 17//14 21//14
f 7//14 59//14 53//14
f 53//14 59//14 57//14
f 55//14 53//14 57//14
f 39//14 51//14 45//14
f 41//14 45//14 43//14
f 41//14 39//14 45//14
f 35//14 33//14 37//14
f 37//14 33//14 31//14
f 31//14 29//14 25//14
f 25//14 29//14 27//14
f 25//14 23//14 1//14
f 9//14 23//14 17//14
f 13//14 17//14 15//14
f 13//14 9//14 17//14
f 2//15 26//15 4//15
f 2//15 24//15 26//15
f 2//15 10//15 24//15
f 2//15 12//15 10//15
f 2//15 8//15 12//15
f 12//15 8//15 60//15
f 62//15 12//15 60//15
f 62//15 64//15 12//15
f 60//15 8//15 54//15
f 58//15 54//15 56//15
f 58//15 60//15 54//15
f 4//15 38//15 6//15
f 4//15 32//15 38//15
f 4//15 26//15 32//15
f 32//15 26//15 30//15
f 30//15 26//15 28//15
f 24//15 10//15 18//15
f 22//15 18//15 20//15
f 22//15 24//15 18//15
f 16//15 18//15 14//15
f 14//15 18//15 10//15
f 32//15 34//15 38//15
f 38//15 34//15 36//15
f 38//15 40//15 6//15
f 6//15 40//15 52//15
f 54//15 6//15 52//15
f 54//15 8//15 6//15
f 52//15 40//15 46//15
f 50//15 46//15 48//15
f 50//15 52//15 46//15
f 44//15 46//15 42//15
f 42//15 46//15 40//15
