# Blender v2.77 (sub 0) OBJ File: ''
# www.blender.org
mtllib yen_sign.mtl
o ascii.050
v -14.015882 -7.431676 4.999999
v -14.015882 -7.431674 -5.000001
v -14.015882 -13.468255 4.999998
v -14.015882 -13.468253 -5.000002
v -3.893931 -7.431676 4.999999
v -3.893931 -7.431674 -5.000001
v -3.893931 -4.169477 5.000000
v -3.893931 -4.169475 -5.000000
v -14.015882 -4.169477 5.000000
v -14.015882 -4.169475 -5.000000
v -14.015882 1.867105 5.000000
v -14.015882 1.867106 -5.000000
v -6.881737 1.867105 5.000000
v -6.881737 1.867106 -5.000000
v -15.387834 19.092718 5.000003
v -15.387834 19.092718 -4.999997
v -6.973200 19.092718 5.000003
v -6.973200 19.092718 -4.999997
v -1.729301 7.385406 5.000001
v -1.729301 7.385407 -4.999999
v -1.483012 6.846626 0.000001
v -1.483012 6.846627 -4.999999
v -1.247211 6.327856 0.000001
v -1.247211 6.327857 -4.999999
v -1.021882 5.829096 0.000001
v -1.021882 5.829097 -4.999999
v -0.807041 5.350336 0.000001
v -0.807041 5.350337 -4.999999
v -0.602681 4.891596 0.000001
v -0.602681 4.891597 -4.999999
v -0.408792 4.452856 0.000001
v -0.408792 4.452857 -4.999999
v -0.225391 4.034126 0.000001
v -0.225391 4.034127 -5.000000
v -0.052472 3.635406 -5.000000
v -1.483012 6.846625 5.000001
v -1.247211 6.327855 5.000001
v -1.021882 5.829095 5.000001
v -0.807041 5.350335 5.000001
v -0.602681 4.891595 5.000001
v -0.408792 4.452855 5.000001
v -0.225391 4.034125 5.000000
v -0.052472 3.635405 5.000000
v 0.351499 4.496685 0.000001
v 0.351499 4.496686 -4.999999
v 0.770699 5.403696 0.000001
v 0.770699 5.403697 -4.999999
v 1.205158 6.356436 0.000001
v 1.205158 6.356437 -4.999999
v 1.654848 7.354918 -4.999999
v 0.351499 4.496684 5.000001
v 0.770699 5.403695 5.000001
v 1.205158 6.356435 5.000001
v 1.654848 7.354916 5.000001
v 6.990219 19.092718 5.000003
v 6.990219 19.092718 -4.999997
v 15.404850 19.092718 5.000003
v 15.404850 19.092718 -4.999997
v 6.807287 1.867105 5.000000
v 6.807287 1.867106 -5.000000
v 14.032898 1.867105 5.000000
v 14.032898 1.867106 -5.000000
v 14.032898 -4.169477 5.000000
v 14.032898 -4.169475 -5.000000
v 3.789000 -4.169477 5.000000
v 3.789000 -4.169475 -5.000000
v 3.789000 -7.431676 4.999999
v 3.789000 -7.431674 -5.000001
v 14.032898 -7.431676 4.999999
v 14.032898 -7.431674 -5.000001
v 14.032898 -13.468255 4.999998
v 14.032898 -13.468253 -5.000002
v 3.789000 -13.468255 4.999998
v 3.789000 -13.468253 -5.000002
v 3.789000 -20.907284 4.999997
v 3.789000 -20.907284 -5.000003
v -3.893931 -20.907284 4.999997
v -3.893931 -20.907284 -5.000003
v -3.893931 -13.468255 4.999998
v -3.893931 -13.468253 -5.000002
vn -1.0000 0.0000 0.0000
vn 0.0000 1.0000 0.0000
vn 0.0000 -1.0000 -0.0000
vn -0.8966 -0.4428 0.0000
vn 0.9126 0.4088 0.0000
vn 0.9095 0.4157 0.0000
vn 0.9104 0.4138 0.0000
vn 0.9113 0.4117 0.0000
vn 0.9123 0.4094 0.0000
vn 0.9135 0.4069 0.0000
vn 0.9147 0.4042 0.0000
vn 0.9160 0.4012 0.0000
vn 0.9174 0.3979 0.0000
vn -0.9054 0.4246 0.0000
vn -0.9077 0.4195 0.0000
vn -0.9099 0.4149 0.0000
vn -0.9118 0.4106 0.0000
vn -0.9104 0.4138 0.0000
vn 0.8947 -0.4466 0.0000
vn 1.0000 0.0000 0.0000
vn 0.0000 -0.0000 1.0000
vn 0.0000 0.0000 -1.0000
usemtl DefaultMaterial.050
s 1
f 1//1 2//1 3//1
f 3//1 2//1 4//1
f 5//2 6//2 1//2
f 1//2 6//2 2//2
f 7//1 8//1 5//1
f 5//1 8//1 6//1
f 9//3 10//3 7//3
f 7//3 10//3 8//3
f 11//1 12//1 9//1
f 9//1 12//1 10//1
f 13//2 14//2 11//2
f 11//2 14//2 12//2
f 15//4 16//4 13//4
f 13//4 16//4 14//4
f 17//2 18//2 15//2
f 15//2 18//2 16//2
f 19//5 20//5 17//5
f 17//5 20//5 18//5
f 20//6 19//6 21//6
f 22//7 21//7 23//7
f 24//8 23//8 25//8
f 26//9 25//9 27//9
f 28//10 27//10 29//10
f 30//11 29//11 31//11
f 32//12 31//12 33//12
f 34//13 33//13 35//13
f 34//12 32//12 33//12
f 19//6 36//6 21//6
f 21//7 36//7 37//7
f 23//8 37//8 38//8
f 25//9 38//9 39//9
f 27//10 39//10 40//10
f 29//11 40//11 41//11
f 31//12 41//12 42//12
f 33//13 42//13 43//13
f 35//13 33//13 43//13
f 21//7 37//7 23//7
f 23//8 38//8 25//8
f 25//9 39//9 27//9
f 27//10 40//10 29//10
f 29//11 41//11 31//11
f 31//12 42//12 33//12
f 32//11 30//11 31//11
f 30//10 28//10 29//10
f 28//9 26//9 27//9
f 26//8 24//8 25//8
f 24//7 22//7 23//7
f 22//6 20//6 21//6
f 35//14 43//14 44//14
f 45//15 44//15 46//15
f 47//16 46//16 48//16
f 49//17 48//17 50//17
f 49//16 47//16 48//16
f 43//14 51//14 44//14
f 44//15 51//15 52//15
f 46//16 52//16 53//16
f 48//17 53//17 54//17
f 50//17 48//17 54//17
f 44//15 52//15 46//15
f 46//16 53//16 48//16
f 47//15 45//15 46//15
f 45//14 35//14 44//14
f 55//18 56//18 54//18
f 54//18 56//18 50//18
f 57//2 58//2 55//2
f 55//2 58//2 56//2
f 59//19 60//19 57//19
f 57//19 60//19 58//19
f 61//2 62//2 59//2
f 59//2 62//2 60//2
f 63//20 64//20 61//20
f 61//20 64//20 62//20
f 65//3 66//3 63//3
f 63//3 66//3 64//3
f 67//20 68//20 65//20
f 65//20 68//20 66//20
f 69//2 70//2 67//2
f 67//2 70//2 68//2
f 71//20 72//20 69//20
f 69//20 72//20 70//20
f 73//3 74//3 71//3
f 71//3 74//3 72//3
f 75//20 76//20 73//20
f 73//20 76//20 74//20
f 77//3 78//3 75//3
f 75//3 78//3 76//3
f 79//1 80//1 77//1
f 77//1 80//1 78//1
f 3//3 4//3 79//3
f 79//3 4//3 80//3
f 3//21 79//21 1//21
f 1//21 79//21 5//21
f 5//21 79//21 73//21
f 67//21 73//21 71//21
f 69//21 67//21 71//21
f 77//21 75//21 79//21
f 79//21 75//21 73//21
f 5//21 73//21 67//21
f 7//21 67//21 65//21
f 43//21 65//21 59//21
f 51//21 59//21 52//21
f 51//21 43//21 59//21
f 5//21 67//21 7//21
f 65//21 63//21 59//21
f 59//21 63//21 61//21
f 57//21 55//21 59//21
f 59//21 55//21 54//21
f 53//21 59//21 54//21
f 53//21 52//21 59//21
f 42//21 13//21 43//21
f 42//21 41//21 13//21
f 13//21 41//21 40//21
f 39//21 13//21 40//21
f 39//21 38//21 13//21
f 13//21 38//21 37//21
f 36//21 13//21 37//21
f 36//21 19//21 13//21
f 13//21 19//21 17//21
f 15//21 13//21 17//21
f 11//21 9//21 13//21
f 13//21 9//21 7//21
f 43//21 7//21 65//21
f 43//21 13//21 7//21
f 4//22 6//22 80//22
f 4//22 2//22 6//22
f 8//22 66//22 6//22
f 8//22 35//22 66//22
f 8//22 14//22 35//22
f 8//22 10//22 14//22
f 14//22 10//22 12//22
f 16//22 18//22 14//22
f 14//22 18//22 20//22
f 22//22 14//22 20//22
f 22//22 24//22 14//22
f 14//22 24//22 26//22
f 28//22 14//22 26//22
f 28//22 30//22 14//22
f 14//22 30//22 32//22
f 34//22 14//22 32//22
f 34//22 35//22 14//22
f 66//22 35//22 60//22
f 64//22 60//22 62//22
f 64//22 66//22 60//22
f 35//22 45//22 60//22
f 60//22 45//22 47//22
f 49//22 60//22 47//22
f 49//22 50//22 60//22
f 60//22 50//22 56//22
f 58//22 60//22 56//22
f 66//22 68//22 6//22
f 6//22 68//22 80//22
f 80//22 68//22 74//22
f 78//22 74//22 76//22
f 78//22 80//22 74//22
f 68//22 70//22 74//22
f 74//22 70//22 72//22
